<svg width="120" height="119" viewBox="0 0 120 119" fill="none" xmlns="http://www.w3.org/2000/svg">
<path fill-rule="evenodd" clip-rule="evenodd" d="M0 51.5C0 26.9114 17.0664 6.30877 40 0.891464V22.4081C28.8382 27.0983 21 38.1338 21 51V67C21 79.8662 28.8382 90.9017 40 95.5919V118.109C17.0664 112.691 0 92.0887 0 67.5V51.5ZM80 95.5919V118.109C102.934 112.691 120 92.0887 120 67.5V51.5C120 26.9114 102.934 6.30878 80 0.891464V22.4081C91.1618 27.0983 99 38.1338 99 51V67C99 79.8662 91.1618 90.9017 80 95.5919Z" fill="#849399"/>
</svg>
